<svg width="298" height="89.4" viewBox="0 0 298 89.4" xmlns="http://www.w3.org/2000/svg"><g id="svgGroup" stroke-linecap="round" fill-rule="evenodd" font-size="9pt" stroke="#ffffff" stroke-width="0.25mm" fill="#ffffff" style="stroke:#ffffff;stroke-width:0.25mm;fill:#ffffff"><path d="M 196.2 42.6 L 196.2 1.2 L 199.4 1.2 L 199.4 41.8 A 51.746 51.746 0 0 0 199.654 47.102 Q 199.924 49.721 200.483 51.903 A 20.457 20.457 0 0 0 202 56.05 Q 204.6 61.2 208.8 63.3 Q 213 65.4 217.8 65.4 Q 222.7 65.4 227 63.3 A 14.079 14.079 0 0 0 231.832 59.358 A 19.716 19.716 0 0 0 233.95 56.05 Q 235.821 52.414 236.371 46.808 A 51.421 51.421 0 0 0 236.6 41.8 L 236.6 1.2 L 239.6 1.2 L 239.6 42.6 A 50.254 50.254 0 0 1 239.336 47.916 Q 238.891 52.084 237.7 55.25 A 25.041 25.041 0 0 1 235.95 58.99 Q 234.744 61.073 233.224 62.603 A 14.894 14.894 0 0 1 232.65 63.15 A 18.656 18.656 0 0 1 226.009 67.084 A 18.183 18.183 0 0 1 225.65 67.2 Q 221.8 68.4 217.8 68.4 Q 213.8 68.4 209.95 67.2 Q 206.1 66 203 63.15 Q 199.9 60.3 198.05 55.25 Q 196.2 50.2 196.2 42.6 Z M 0 58.4 L 2.2 56.2 Q 5.8 60.4 10.9 62.9 Q 16 65.4 22 65.4 A 26.23 26.23 0 0 0 27.217 64.912 Q 31.652 64.012 34.7 61.45 A 12.635 12.635 0 0 0 39.365 52.266 A 16.119 16.119 0 0 0 39.4 51.2 A 18.564 18.564 0 0 0 39.199 48.382 Q 38.816 45.889 37.7 44.15 Q 36 41.5 33.25 39.8 Q 30.5 38.1 27.2 36.6 L 17 32 A 52.563 52.563 0 0 1 13.755 30.348 A 67.162 67.162 0 0 1 11.1 28.8 Q 8 26.9 5.8 23.8 Q 3.6 20.7 3.6 15.8 Q 3.6 11.1 6.05 7.55 A 16.279 16.279 0 0 1 11.865 2.423 A 19.536 19.536 0 0 1 12.7 2 A 20.563 20.563 0 0 1 19.15 0.177 A 25.719 25.719 0 0 1 22.2 0 Q 28.2 0 32.8 2.35 Q 37.39 4.695 40.188 7.787 A 19.157 19.157 0 0 1 40.2 7.8 L 38.2 10 Q 35.4 6.8 31.35 4.9 A 20.052 20.052 0 0 0 25.136 3.168 A 25.083 25.083 0 0 0 22.2 3 A 22.481 22.481 0 0 0 17.444 3.476 Q 13.723 4.281 11.05 6.45 Q 6.8 9.9 6.8 15.6 A 14.458 14.458 0 0 0 7.056 18.402 Q 7.387 20.078 8.146 21.405 A 8.376 8.376 0 0 0 8.7 22.25 Q 10.6 24.8 13.35 26.35 A 100.352 100.352 0 0 0 15.983 27.785 A 72.878 72.878 0 0 0 18.4 29 L 28.6 33.6 A 43.666 43.666 0 0 1 34.855 36.911 A 40.024 40.024 0 0 1 35.45 37.3 Q 38.6 39.4 40.6 42.65 A 12.581 12.581 0 0 1 42.068 46.233 Q 42.467 47.836 42.567 49.716 A 24.253 24.253 0 0 1 42.6 51 A 16.739 16.739 0 0 1 41.502 57.111 A 15.7 15.7 0 0 1 40.05 59.95 A 16.852 16.852 0 0 1 34.286 65.386 A 20.735 20.735 0 0 1 32.85 66.15 A 22.051 22.051 0 0 1 26.782 68.029 A 29.52 29.52 0 0 1 22 68.4 A 31.624 31.624 0 0 1 15.563 67.774 A 24.139 24.139 0 0 1 9.25 65.55 A 32.677 32.677 0 0 1 1.741 60.212 A 30.085 30.085 0 0 1 0 58.4 Z M 262 89.4 L 259 89.4 L 259 19.4 L 261.6 19.4 L 262 25.6 L 262.2 25.6 Q 265.8 22.7 270.05 20.45 A 19.031 19.031 0 0 1 276.271 18.381 A 17.736 17.736 0 0 1 278.8 18.2 A 23.191 23.191 0 0 1 283.535 18.658 Q 286.639 19.305 289.057 20.867 A 14.476 14.476 0 0 1 289.55 21.2 Q 293.8 24.2 295.9 29.7 Q 298 35.2 298 42.6 Q 298 50.261 295.361 55.82 A 22.813 22.813 0 0 1 295.05 56.45 A 24.837 24.837 0 0 1 291.455 61.744 A 20.566 20.566 0 0 1 287.3 65.3 Q 282.5 68.4 276.8 68.4 A 16.305 16.305 0 0 1 272.653 67.84 A 21.705 21.705 0 0 1 269.65 66.8 A 36.278 36.278 0 0 1 265.384 64.621 A 46.464 46.464 0 0 1 262 62.4 L 262 71.4 L 262 89.4 Z M 87 26.8 L 85.4 24.4 A 24.452 24.452 0 0 1 86.445 23.679 Q 87.672 22.874 89.387 21.914 A 75.976 75.976 0 0 1 89.5 21.85 Q 92.1 20.4 95.5 19.3 A 22.982 22.982 0 0 1 101.355 18.239 A 26.702 26.702 0 0 1 102.8 18.2 Q 106.889 18.2 109.699 19.533 A 10.126 10.126 0 0 1 111.6 20.7 A 13.162 13.162 0 0 1 116.017 27.046 A 15.959 15.959 0 0 1 116.1 27.3 A 27.957 27.957 0 0 1 117.297 33.556 A 33.395 33.395 0 0 1 117.4 36.2 L 117.4 67.2 L 114.8 67.2 L 114.4 60.8 L 114.2 60.8 Q 110.5 63.8 106.05 66.1 Q 101.6 68.4 96.8 68.4 A 17.785 17.785 0 0 1 91.765 67.703 A 16.165 16.165 0 0 1 89.95 67.05 Q 86.8 65.7 84.9 62.85 Q 83 60 83 55.5 A 13.171 13.171 0 0 1 84.56 49.041 Q 85.973 46.475 88.664 44.557 A 19.115 19.115 0 0 1 90.6 43.35 A 33.875 33.875 0 0 1 96.03 41.04 Q 101.817 39.095 110.363 37.904 A 146.343 146.343 0 0 1 114.4 37.4 A 31.987 31.987 0 0 0 114.411 36.58 A 31.423 31.423 0 0 0 113.65 29.7 Q 112.8 25.9 110.2 23.45 Q 107.6 21 102.6 21 Q 97.5 21 93.4 23 A 57.009 57.009 0 0 0 91.013 24.231 Q 88.581 25.563 87 26.8 Z M 57.4 54.6 L 57.4 22.2 L 49.8 22.2 L 49.8 19.8 L 57.4 19.4 L 57.8 5.4 L 60.4 5.4 L 60.4 19.4 L 74.6 19.4 L 74.6 22.2 L 60.4 22.2 L 60.4 55 Q 60.4 59.6 62 62.6 Q 63.278 64.997 66.855 65.479 A 14.602 14.602 0 0 0 68.8 65.6 A 9.392 9.392 0 0 0 70.189 65.491 Q 70.864 65.389 71.605 65.195 A 16.567 16.567 0 0 0 71.95 65.1 A 25.97 25.97 0 0 0 73.395 64.644 Q 74.132 64.386 74.768 64.105 A 15.178 15.178 0 0 0 75 64 L 76 66.6 Q 73.9 67.3 71.85 67.85 Q 69.8 68.4 68.6 68.4 Q 64.908 68.4 62.562 67.196 A 6.945 6.945 0 0 1 59.7 64.55 Q 57.782 61.34 57.463 56.564 A 29.522 29.522 0 0 1 57.4 54.6 Z M 166.8 54.6 L 166.8 22.2 L 159.2 22.2 L 159.2 19.8 L 166.8 19.4 L 167.2 5.4 L 169.8 5.4 L 169.8 19.4 L 184 19.4 L 184 22.2 L 169.8 22.2 L 169.8 55 Q 169.8 59.6 171.4 62.6 Q 172.678 64.997 176.255 65.479 A 14.602 14.602 0 0 0 178.2 65.6 A 9.392 9.392 0 0 0 179.589 65.491 Q 180.264 65.389 181.005 65.195 A 16.567 16.567 0 0 0 181.35 65.1 A 25.97 25.97 0 0 0 182.795 64.644 Q 183.532 64.386 184.168 64.105 A 15.178 15.178 0 0 0 184.4 64 L 185.4 66.6 Q 183.3 67.3 181.25 67.85 Q 179.2 68.4 178 68.4 Q 174.308 68.4 171.962 67.196 A 6.945 6.945 0 0 1 169.1 64.55 Q 167.182 61.34 166.863 56.564 A 29.522 29.522 0 0 1 166.8 54.6 Z M 138.2 67.2 L 135.2 67.2 L 135.2 19.4 L 137.8 19.4 L 138.2 28.4 L 138.4 28.4 Q 140.8 24 144.25 21.1 Q 147.7 18.2 152 18.2 A 13.052 13.052 0 0 1 153.954 18.343 A 11.804 11.804 0 0 1 154.3 18.4 A 7.648 7.648 0 0 1 155.569 18.752 A 10.102 10.102 0 0 1 156.6 19.2 L 155.8 22 A 16.556 16.556 0 0 0 155.089 21.722 Q 154.356 21.456 153.809 21.352 A 4.945 4.945 0 0 0 153.8 21.35 A 6.99 6.99 0 0 0 153.241 21.271 Q 152.658 21.21 151.865 21.202 A 24.542 24.542 0 0 0 151.6 21.2 A 8.747 8.747 0 0 0 148.334 21.868 Q 147.114 22.357 145.856 23.203 A 18.522 18.522 0 0 0 144.7 24.05 Q 141.25 26.781 138.444 33.414 A 50.619 50.619 0 0 0 138.2 34 L 138.2 67.2 Z M 262 29.4 L 262 59 A 41.289 41.289 0 0 0 265.361 61.492 Q 267.123 62.657 268.797 63.453 A 21.348 21.348 0 0 0 270.3 64.1 A 28.522 28.522 0 0 0 272.851 64.954 Q 275.163 65.6 277 65.6 Q 282.2 65.6 286.2 62.65 A 18.67 18.67 0 0 0 291.072 57.247 A 23.816 23.816 0 0 0 292.5 54.5 A 26.57 26.57 0 0 0 294.477 47.414 A 34.584 34.584 0 0 0 294.8 42.6 A 40.038 40.038 0 0 0 294.362 36.543 A 31.022 31.022 0 0 0 293.2 31.6 A 17.955 17.955 0 0 0 291.123 27.228 A 14.75 14.75 0 0 0 288.05 23.85 Q 284.796 21.238 279.569 21.02 A 23.245 23.245 0 0 0 278.6 21 A 14.465 14.465 0 0 0 274.433 21.643 Q 272.769 22.143 271.032 23.03 A 24.638 24.638 0 0 0 270.8 23.15 A 36.192 36.192 0 0 0 267.132 25.381 Q 264.662 27.078 262 29.4 Z M 114.4 57.4 L 114.4 40 Q 104.379 41.146 98.321 43.065 A 40.114 40.114 0 0 0 97.75 43.25 Q 93.859 44.547 91.349 46.225 A 12.95 12.95 0 0 0 88.9 48.3 Q 86.2 51.3 86.2 55.4 Q 86.2 60.9 89.45 63.25 A 12.416 12.416 0 0 0 96.401 65.589 A 15.344 15.344 0 0 0 97 65.6 Q 101.4 65.6 105.5 63.5 A 37.885 37.885 0 0 0 109.084 61.39 Q 110.831 60.237 112.688 58.784 A 71.485 71.485 0 0 0 114.4 57.4 Z" vector-effect="non-scaling-stroke"/></g></svg>